<svg width="685" height="488" fill="none" xmlns="http://www.w3.org/2000/svg"><path d="M650.465 471.17H81.125" stroke="#DDEAFF" stroke-width="2.469" stroke-miterlimit="22.926" stroke-linecap="round" stroke-linejoin="round"/><path fill-rule="evenodd" clip-rule="evenodd" d="M593.406 334.364h72.475v-98.742h-52.754l-19.721 18.652v80.09z" fill="#DDEAFF"/><path fill-rule="evenodd" clip-rule="evenodd" d="M602.567 228.223h56.588v98.742h-72.476v-83.029l15.888-15.713z" fill="#fff" stroke="#8BB9FF" stroke-width="2.835" stroke-miterlimit="22.926" stroke-linecap="round" stroke-linejoin="round"/><path fill-rule="evenodd" clip-rule="evenodd" d="M586.679 243.936h15.888v-15.888l-15.888 15.888zM597.771 305.306h50.353c.525 0 .955.431.955.955 0 .525-.43.955-.955.955h-50.353a.959.959 0 01-.955-.955.96.96 0 01.955-.955zM597.771 313.196h50.353c.525 0 .955.431.955.955 0 .525-.43.955-.955.955h-50.353a.959.959 0 01-.955-.955.96.96 0 01.955-.955zM597.771 289.526h50.353c.525 0 .955.431.955.956 0 .524-.43.955-.955.955h-50.353a.96.96 0 01-.955-.955.96.96 0 01.955-.956zM597.771 297.416h50.353c.525 0 .955.431.955.955 0 .525-.43.956-.955.956h-50.353a.96.96 0 01-.955-.956.96.96 0 01.955-.955z" fill="#8BB9FF"/><path d="M623.513 281.583c10.082 0 18.255-8.173 18.255-18.256 0-10.082-8.173-18.255-18.255-18.255-10.082 0-18.255 8.173-18.255 18.255 0 10.083 8.173 18.256 18.255 18.256z" fill="#FFD347"/><path d="M623.513 263.327l20.959-14.158a25.255 25.255 0 00-7.332-7.15 25.408 25.408 0 00-9.565-3.66l-4.062 24.968z" fill="#FC865F"/><path d="M624.347 228.048v-28.977" stroke="#8BB9FF" stroke-width="2.835" stroke-miterlimit="22.926" stroke-linecap="round" stroke-linejoin="round" stroke-dasharray="8 8"/><path fill-rule="evenodd" clip-rule="evenodd" d="M535.351 0H255.558a8.652 8.652 0 00-8.65 8.65v209.093a8.652 8.652 0 008.65 8.65h279.8a8.652 8.652 0 008.65-8.65V8.657A8.655 8.655 0 00535.351 0z" fill="#8BB9FF"/><path d="M525.121 237.808H241.85a8.563 8.563 0 01-8.563-8.563V18.652a8.563 8.563 0 018.563-8.563h283.271a8.563 8.563 0 018.562 8.563v210.587c0 4.735-3.834 8.569-8.562 8.569z" fill="#fff" stroke="#3383FF" stroke-width="2.835" stroke-miterlimit="22.926" stroke-linecap="round" stroke-linejoin="round"/><path d="M452.544 138.905c6.248 0 11.313-5.066 11.313-11.314s-5.065-11.314-11.313-11.314c-6.249 0-11.314 5.066-11.314 11.314s5.065 11.314 11.314 11.314z" fill="#8BB9FF"/><path d="M449.268 124.45l3.142 3.141 5.333-5.334" stroke="#3383FF" stroke-width="3" stroke-miterlimit="10" stroke-linecap="round" stroke-linejoin="round"/><path d="M484.198 471.17s5.536.343 10.452-3.511c4.917-3.861 12.141-10.466 18.444-12.464 6.302-1.998 10.762-1.016 14.603 2.643 3.84 3.659 5.899 5.664 7.56 6.908 1.661 1.245 3.605 2.011 5.482 1.594 1.87-.417 2.912-1.177 5.273-1.177 2.361 0 3.747 1.803 4.783 2.913 1.042 1.11 3.262 3.114 6.383 3.107l-72.98-.013zM507.282 423.749c-3.121-.753-5.199.189-6.242 1.231-1.042 1.043-1.419 2.556-1.419 2.556s-3.027-1.419-6.067-.753c-3.04.659-4.621 3.215-4.621 3.215s3.034-1.883 6.807-1.419c4.063.504 5.912 1.83 5.912 1.83s-.174-2.556 1.675-4.716c1.42-1.654 3.955-1.944 3.955-1.944zM652.987 385.389c-2.468-.988-5.919-.934-8.771-.383-2.852.545-4.991 1.48-5.428.713-.437-.767-.235-3.491-.935-5.697-.962-3.061-3.565-5.314-3.565-5.314s3.235 1.096 5.374 3.511 3.034 4.123 3.034 4.123 2.28-.444 5.024.101c3.875.76 5.267 2.946 5.267 2.946zM578.971 470.914c5.812-18.874 7.675-36.456 6.511-54.51-1.163-18.046-7.701-36.053-7.701-36.053h-6.962s1.177-2.63 4.433 10.857c3.255 13.486 3.484 33.947 0 51.617-3.485 17.67-11.395 28.089-11.395 28.089h15.114zM619.658 424.462c-7.674 12.787-11.858 25.574-11.394 34.412.464 8.838 4.184 12.309 4.184 12.309h13.022s-4.883-2.448-7.675-10.748c-2.791-8.301.464-20.623 3.485-28.298 3.02-7.675 8.354-12.087 8.354-12.087l-9.976 4.412z" fill="#DDEAFF"/><path d="M618.36 426.689c2.032-3.747-4.244-1.036-10.123 2.381-5.878 3.417-11.724 8.28-11.724 8.28s1.312-6.8 7.097-12.464c5.778-5.67 11.898-6.982 15.147-6.982 0 0 .189-5.428-4.109-11.959-3.922-5.946-12.747-10.513-12.747-10.513s6.962 0 13.796 2.892 11.091 7.224 13.957 19.311c0 0 3.43-1.157 10.91-.309 7.479.847 11.623 7.426 12.047 11.865 0 0-6.451-4.688-15.094-4.749-8.643-.06-11.663 2.307-13.944 4.332-.962.854-2.287 3.35-2.287 3.35l-2.926-5.435z" fill="#DDEAFF"/><path d="M627.683 425.572s1.675.895 2.812 3.592c1.143 2.691 1.062 7.258 1.062 7.258s1.958-2.287 2.53-6.404c.571-4.116-1.104-8.038-1.104-8.038l-5.3 3.592zM577.222 382.309s6.135-1.265 14.341 0c8.206 1.264 15.336 3.787 20.562 9.739 0 0-3.968-7.742-10.103-11.898-6.134-4.157-15.423-4.971-19.123-3.256 0 0 6.276-7.123 13.601-10.641 7.325-3.518 14.63-2.166 14.63-2.166s-8.388-5.233-17.771-2.071c-9.383 3.161-14.072 7.735-19.392 14.508 0 0-11.166-5.852-23.905-.713-15.424 6.222-19.029 21.558-19.029 21.558s6.316-8.933 16.775-12.807c10.466-3.881 16.043-2.435 16.043-2.435s-11.079 4.964-15.592 13.305c-4.513 8.34-4.688 17.993-4.688 17.993s3.067-11.637 12.174-19.211c9.108-7.574 12.706-8.63 14.287-9.026 1.352-.343 3.511-.249 4.46 3.053 1.17 4.036 2.73-5.932 2.73-5.932zM250.311 355.7c1.009-6.505 5.98-13.722 12.242-16.191 7.668-3.02 15.262 0 15.262 0s-8.906 3.101-13.634 7.904c-4.722 4.802-7.359 9.76-7.359 9.76s14.173-2.946 22.311 4.688c8.133 7.627 5.577 17.468 5.577 17.468-.236-6.894-6.814-11.616-14.099-14.562-7.284-2.946-13.015-2.906-13.015-2.906s3.101 2.206 4.103 5.771c1.002 3.565.928 5.421.928 5.421s-.235-3.565-3.37-7.123c-3.141-3.558-5.67-4.069-5.67-4.069s-5.004 1.143-10.5 10.634c-5.495 9.491-11.804 22.923-11.804 22.923s-.565-5.091.672-16.015c1.238-10.923 9.841-17.428 9.841-17.428s-7.594 2.637-13.17 7.978c-5.576 5.34-10.614 13.553-10.614 13.553s-.619-5.966 1.937-12.242c2.556-6.275 8.67-12.228 16.419-12.551 1.856-.081 1.453-1.661-1.164-2.092-2.892-.477-7.634.39-11.905 3.484-2.698 1.951-3.666 2.792-3.666 2.792s1.399-6.37 9.605-9.915c5.569-2.408 10.648-2.078 14.172-1.237 4.883 1.163 6.901 3.955 6.901 3.955z" fill="#DDEAFF"/><path d="M251.515 359.843s-7.318 8.758-7.365 34.344c-.054 30.323 4.682 51.43 9.437 64.324 4.756 12.894 6.296 12.659 6.296 12.659l20.697-.256s-12.747-10.002-21.08-32.844c-7.978-21.861-8.832-50.172-7.372-63.194 1.459-13.022 4.069-15.04 4.069-15.04h-4.682v.007zM173.773 471.17c-2.556 0-4.641-1.406-6.269-2.919-1.628-1.507-3.249-3.713-10.917-2.213-7.661 1.506-14.051 3.255-18.807 1.627-4.762-1.627-8.475-6.383-15.793-6.733-7.318-.349-12.074 3.02-18.228 5.691-6.155 2.67-13.352 4.54-17.65 4.54h87.664v.007zM65.668 423.433s3.598-1.163 9.639 0c6.04 1.164 7.896 2.906 7.896 2.906s-.35-2.321 1.857-5.69c2.206-3.37 4.063-3.949 4.063-3.949s-1.857-.114-4.063.7c-2.206.814-4.715 3.228-4.715 3.228s-1.91-.834-5.852-1.257c-6.498-.7-8.825 4.062-8.825 4.062z" fill="#DDEAFF"/><path fill-rule="evenodd" clip-rule="evenodd" d="M266.838 46.72c2.906 0 5.26 2.26 5.26 5.052s-2.354 5.052-5.26 5.052c-2.906 0-5.26-2.26-5.26-5.052 0-2.784 2.354-5.051 5.26-5.051z" fill="#FFB726" stroke="#FC865F" stroke-width="1.85" stroke-miterlimit="22.926" stroke-linecap="round" stroke-linejoin="round"/><path fill-rule="evenodd" clip-rule="evenodd" d="M410.209 126.071c2.219-2.792 2.219-7.231 1.728-10.554-.491-3.329-1.466-5.542-6.699-7.896-5.233-2.348-14.724-4.837-21.201-6.256-6.478-1.42-9.935-1.776-15.35-4.123-5.414-2.348-12.773-6.7-20.845-9.356-8.071-2.664-16.856-3.64-25.768-3.989-8.912-.357-17.966-.088-27.41 2.307-9.45 2.395-19.297 6.922-26.393 9.094-7.097 2.173-11.442 1.998-14.146 3.013-2.704 1.023-3.773 3.236-4.123 5.543-.357 2.307 0 4.702-.175 5.946-.175 1.244-.888 1.332-1.285 2.838-.397 1.507-.491 4.433-.269 6.653.222 2.219.754 3.726 2.57 4.836 1.816 1.11 4.923 1.816 9.181 2.529 1.352.222 2.812.451 4.769.679a17.141 17.141 0 01-.33-3.343c0-9.336 7.567-16.896 16.897-16.896 9.336 0 16.896 7.567 16.896 16.896 0 1.884-.309 3.7-.881 5.395 18.329.78 43.223 1.587 60.671 1.924 4.332.08 8.2.134 11.677.168a16.825 16.825 0 01-1.742-7.487c0-9.336 7.567-16.896 16.896-16.896 9.33 0 16.897 7.567 16.897 16.896 0 2.193-.417 4.285-1.177 6.202 4.782-.753 7.876-1.937 9.612-4.123z" fill="#A987EB"/><path fill-rule="evenodd" clip-rule="evenodd" d="M287.037 97.915l1.291-6.41c-3.746 1.19-7.15 2.468-10.56 3.74l-.531 2.394 9.8.276zM291.422 90.563l-1.399 7.432 28.264.794-1.231-12.235a77.41 77.41 0 00-5.428.222c-6.498.49-13.062 1.816-18.719 3.37-.498.134-1.002.275-1.487.417zM324.865 86.843l1.225 12.168 41.36 1.157c-6.121-3.06-12.242-6.121-18.316-8.314-6.074-2.193-12.107-3.524-18.343-4.372-1.957-.269-3.935-.484-5.926-.639z" fill="#DEEBFF"/><path fill-rule="evenodd" clip-rule="evenodd" d="M267.86 113.815c-9.336-.706-14.004-1.654-18.665-2.603a4.318 4.318 0 00-.66 1.42c-.396 1.506-.491 4.432-.269 6.652.222 2.22.754 3.726 2.57 4.836 1.816 1.11 4.923 1.816 9.181 2.529 1.352.222 2.812.451 4.769.68a17.149 17.149 0 01-.329-3.343 16.888 16.888 0 013.403-10.171zM295.626 114.919a16.817 16.817 0 012.637 9.067c0 1.883-.309 3.699-.881 5.394 18.329.78 43.223 1.588 60.671 1.924 4.332.081 8.199.134 11.677.168a16.808 16.808 0 01-1.742-7.486c0-2.778.666-5.395 1.856-7.709-8.764-.181-18.45-.41-28.795-.598-15.04-.276-31.459-.458-45.423-.76zM401.781 123.986c0 2.192-.417 4.284-1.178 6.201 4.769-.753 7.87-1.93 9.606-4.116 2.219-2.792 2.219-7.231 1.728-10.554-.006-.047-.013-.087-.02-.134-3.242.666-7.17.955-11.899 1.089a16.746 16.746 0 011.763 7.514z" fill="#8F50D9"/><path fill-rule="evenodd" clip-rule="evenodd" d="M403.751 108.347c-1.204-.552-3.235-1.137-4.587-1.09-1.352.047-2.031.72-1.123 1.494.908.773 3.403 1.634 4.943 1.843 1.541.208 2.126-.236 2.234-.707.114-.484-.269-.995-1.467-1.54z" fill="#fff"/><path d="M281.561 137.687c7.538 0 13.648-6.11 13.648-13.648 0-7.537-6.11-13.647-13.648-13.647-7.537 0-13.647 6.11-13.647 13.647 0 7.538 6.11 13.648 13.647 13.648z" fill="#270D45"/><path fill-rule="evenodd" clip-rule="evenodd" d="M281.562 133.14c5.011 0 9.1-4.089 9.1-9.101 0-5.011-4.089-9.1-9.1-9.1-5.011 0-9.101 4.089-9.101 9.1 0 5.012 4.09 9.101 9.101 9.101z" fill="#DEEBFF"/><path fill-rule="evenodd" clip-rule="evenodd" d="M281.562 126.152a2.117 2.117 0 002.112-2.113 2.116 2.116 0 00-2.112-2.112 2.117 2.117 0 00-2.113 2.112c0 1.164.949 2.113 2.113 2.113z" fill="#270D45"/><path d="M394.926 133.69c5.33-5.33 5.33-13.971 0-19.301-5.33-5.33-13.971-5.33-19.301 0-5.329 5.33-5.329 13.971 0 19.301 5.33 5.329 13.971 5.329 19.301 0z" fill="#270D45"/><path fill-rule="evenodd" clip-rule="evenodd" d="M385.274 133.14c5.011 0 9.101-4.089 9.101-9.101 0-5.011-4.09-9.1-9.101-9.1-5.011 0-9.1 4.089-9.1 9.1.006 5.012 4.096 9.101 9.1 9.101z" fill="#DEEBFF"/><path fill-rule="evenodd" clip-rule="evenodd" d="M385.281 126.152a2.116 2.116 0 002.112-2.113 2.116 2.116 0 00-2.112-2.112 2.116 2.116 0 00-2.112 2.112c0 1.164.948 2.113 2.112 2.113z" fill="#270D45"/><path d="M273.826 269.845h-22.419a3.198 3.198 0 01-3.195-3.195v-12.49a3.198 3.198 0 013.195-3.195h22.419a3.198 3.198 0 013.195 3.195v12.49a3.198 3.198 0 01-3.195 3.195zM255.887 276.572l6.726-6.727 6.727 6.727h-13.453z" fill="#DDEAFF"/><path fill-rule="evenodd" clip-rule="evenodd" d="M524.387 10.09H242.583c-5.133 0-9.296 4.163-9.296 9.295v10.621h300.396V19.392c0-5.139-4.164-9.303-9.296-9.303z" fill="#3383FF"/><path d="M243.329 23.3a3.572 3.572 0 100-7.143 3.572 3.572 0 000 7.143z" fill="#FFB626"/><path fill-rule="evenodd" clip-rule="evenodd" d="M253.661 23.3a3.578 3.578 0 003.571-3.572 3.578 3.578 0 00-3.571-3.571 3.578 3.578 0 00-3.572 3.571 3.578 3.578 0 003.572 3.572z" fill="#FC865F"/><path fill-rule="evenodd" clip-rule="evenodd" d="M444.593 174.016h72.604c1.076 0 1.951.881 1.951 1.95a1.956 1.956 0 01-1.951 1.951h-72.604a1.956 1.956 0 01-1.95-1.951c0-1.076.874-1.95 1.95-1.95z" fill="#7427CA"/><path fill-rule="evenodd" clip-rule="evenodd" d="M444.593 197.786h72.604c1.076 0 1.951.882 1.951 1.951a1.957 1.957 0 01-1.951 1.951h-72.604a1.956 1.956 0 01-1.95-1.951c0-1.069.874-1.951 1.95-1.951zM444.593 185.901h72.604c1.076 0 1.951.881 1.951 1.951 0 1.076-.881 1.95-1.951 1.95h-72.604a1.956 1.956 0 01-1.95-1.95c0-1.07.874-1.951 1.95-1.951z" fill="#8BB9FF"/><path fill-rule="evenodd" clip-rule="evenodd" d="M263.535 173.948h126.414c1.076 0 1.951.882 1.951 1.951a1.957 1.957 0 01-1.951 1.951H263.535a1.956 1.956 0 01-1.95-1.951 1.952 1.952 0 011.95-1.951zM263.535 197.726h126.414c1.076 0 1.951.881 1.951 1.951 0 1.076-.882 1.95-1.951 1.95H263.535a1.956 1.956 0 01-1.95-1.95 1.951 1.951 0 011.95-1.951zM263.535 185.834h126.414c1.076 0 1.951.881 1.951 1.95a1.957 1.957 0 01-1.951 1.951H263.535a1.956 1.956 0 01-1.95-1.951 1.951 1.951 0 011.95-1.95z" fill="#A987EB"/><path fill-rule="evenodd" clip-rule="evenodd" d="M295.707 46.72h91.141a5.05 5.05 0 015.052 5.052 5.05 5.05 0 01-5.052 5.052h-91.141a5.05 5.05 0 01-5.051-5.052 5.054 5.054 0 015.051-5.051z" fill="#DBB7F3"/><path fill-rule="evenodd" clip-rule="evenodd" d="M332.668 154.557h-66.207a3.844 3.844 0 00-3.841 3.84 3.844 3.844 0 003.841 3.841h66.207a3.844 3.844 0 003.841-3.841 3.844 3.844 0 00-3.841-3.84z" fill="#FC865F"/><path fill-rule="evenodd" clip-rule="evenodd" d="M489.148 154.557h-42.664a3.844 3.844 0 00-3.841 3.84 3.844 3.844 0 003.841 3.841h42.664a3.84 3.84 0 100-7.681z" fill="#FFD347"/><path fill-rule="evenodd" clip-rule="evenodd" d="M515.307 154.557h-9.034a3.844 3.844 0 00-3.84 3.84 3.844 3.844 0 003.84 3.841h9.034a3.844 3.844 0 003.84-3.841 3.84 3.84 0 00-3.84-3.84z" fill="#8BB9FF"/><path d="M481.503 142.15v-4.799h-8.695v-2.256l9.147-12.988h2.009v12.988h2.707v2.256h-2.707v4.799h-2.461zm0-7.055v-9.037l-6.275 9.037h6.275zm11.485-3.814c-1.021-.374-1.778-.907-2.27-1.6-.492-.692-.738-1.522-.738-2.488 0-1.458.524-2.684 1.572-3.678 1.048-.993 2.443-1.49 4.184-1.49 1.75 0 3.158.511 4.224 1.531 1.067 1.012 1.6 2.247 1.6 3.705 0 .93-.246 1.741-.738 2.434-.483.684-1.222 1.212-2.215 1.586 1.23.401 2.165 1.048 2.803 1.941.647.894.97 1.96.97 3.2 0 1.713-.606 3.153-1.818 4.32-1.212 1.167-2.807 1.75-4.785 1.75-1.978 0-3.573-.583-4.785-1.75-1.213-1.176-1.819-2.639-1.819-4.389 0-1.303.328-2.392.985-3.267.665-.884 1.608-1.486 2.83-1.805zm-.492-4.17c0 .948.305 1.723.916 2.324.61.602 1.403.903 2.379.903.947 0 1.722-.297 2.324-.889.61-.602.916-1.335.916-2.201 0-.903-.315-1.659-.944-2.27-.619-.62-1.394-.929-2.324-.929-.939 0-1.718.3-2.338.902-.619.601-.929 1.322-.929 2.16zm-.793 9.256c0 .702.164 1.381.492 2.037a3.6 3.6 0 001.49 1.531 4.375 4.375 0 002.119.534c1.176 0 2.147-.379 2.912-1.135.766-.757 1.149-1.718 1.149-2.885 0-1.185-.397-2.165-1.19-2.939-.784-.775-1.768-1.163-2.953-1.163-1.157 0-2.119.383-2.885 1.149-.756.765-1.134 1.723-1.134 2.871zm-17.405 37.783v-20.043h2.461v7.192c1.149-1.331 2.598-1.997 4.348-1.997 1.075 0 2.01.215 2.803.643.793.419 1.358 1.003 1.695 1.75.346.747.52 1.832.52 3.254v9.201h-2.461v-9.201c0-1.23-.269-2.124-.807-2.68-.529-.565-1.281-.847-2.256-.847-.729 0-1.417.191-2.064.574-.638.374-1.094.884-1.368 1.531-.273.647-.41 1.54-.41 2.68v7.943h-2.461z" fill="#3383FF"/><path fill-rule="evenodd" clip-rule="evenodd" d="M190.857 69.832H22.404c-6.921 0-12.538 5.61-12.538 12.538v305.636c0 6.921 5.61 12.538 12.538 12.538h168.453c6.922 0 12.538-5.61 12.538-12.538V82.363c0-6.92-5.609-12.53-12.538-12.53z" fill="#8BB9FF"/><path d="M154.899 28.89v-.014a5.905 5.905 0 00-5.906-5.906 5.8 5.8 0 00-1.372.169c-5.119-10.07-15.571-16.971-27.638-16.971-9.901 0-18.713 4.648-24.39 11.879a12.753 12.753 0 00-3.424-.478c-7.015 0-12.706 5.69-12.706 12.706 0 1.177.175 2.307.471 3.39-8.3 1.298-14.65 8.475-14.65 17.139 0 9.578 7.77 17.347 17.347 17.347h70.842c10.856 0 19.661-8.805 19.661-19.661 0-10.379-8.045-18.874-18.235-19.6z" fill="#8BB9FF"/><path fill-rule="evenodd" clip-rule="evenodd" d="M180.997 391.679H15.934c-7.91 0-14.327-6.417-14.327-14.327V75.408c0-7.91 6.417-14.327 14.327-14.327h165.063c7.91 0 14.327 6.417 14.327 14.327v301.944c0 7.916-6.41 14.327-14.327 14.327z" fill="#fff" stroke="#3383FF" stroke-width="3" stroke-miterlimit="22.926" stroke-linecap="round" stroke-linejoin="round"/><path fill-rule="evenodd" clip-rule="evenodd" d="M180.788 61.088H16.142c-8.031 0-14.535 6.511-14.535 14.536v14.508h193.717V75.624c0-8.031-6.505-14.536-14.536-14.536z" fill="#3383FF"/><path d="M162.217 12.807a7.256 7.256 0 00-7.251 7.257c0 4.003 3.249 7.258 7.251 7.258 4.002 0 7.231-3.255 7.231-7.258 0-4.008-3.222-7.257-7.231-7.257zm14.542 11.428l-1.305 3.148 2.334 4.58.31.606-3.236 3.235-5.307-2.502-3.147 1.291-1.601 4.89-.202.653h-4.567l-1.978-5.523-3.148-1.298-4.587 2.328-.605.302-3.229-3.228 2.502-5.307-1.298-3.148-4.883-1.594-.646-.209v-4.567l5.529-1.978 1.298-3.14-2.327-4.588-.309-.599 3.228-3.228 5.314 2.502 3.148-1.298 1.594-4.89.208-.646h4.568l1.977 5.529 3.141 1.298 4.588-2.327.612-.31 3.228 3.229-2.502 5.3 1.292 3.148 4.896 1.594.646.209v4.567l-5.536 1.97z" fill="#8F50D9"/><path d="M29.427 50.676H18.98a2.981 2.981 0 01-2.98-2.98V24.84a2.981 2.981 0 012.98-2.98h10.446a2.981 2.981 0 012.98 2.98v22.856a2.985 2.985 0 01-2.98 2.98z" fill="#DDEAFF"/><path fill-rule="evenodd" clip-rule="evenodd" d="M120.669 158.404h52.889a1.47 1.47 0 011.466 1.466 1.47 1.47 0 01-1.466 1.467h-52.889a1.47 1.47 0 01-1.467-1.467c0-.807.66-1.466 1.467-1.466zM120.669 168.776h52.889a1.47 1.47 0 011.466 1.466 1.47 1.47 0 01-1.466 1.467h-52.889a1.47 1.47 0 01-1.467-1.467c0-.807.66-1.466 1.467-1.466z" fill="#A987EB"/><path d="M24.759 362.359v-2.422a4.622 4.622 0 00-4.615-4.614 4.622 4.622 0 00-4.614 4.614v2.422a1.73 1.73 0 00-1.648 1.728v4.527a6.264 6.264 0 006.262 6.262 6.264 6.264 0 006.262-6.262v-4.527c0-.928-.733-1.681-1.647-1.728zm-3.317 8.697h-2.657l.512-3.585a1.597 1.597 0 01-.76-1.359 1.608 1.608 0 113.215 0c0 .599-.33 1.117-.814 1.392l.504 3.552zm1.615-8.704h-5.825v-2.415a2.914 2.914 0 015.825 0v2.415z" fill="#7427CA"/><path d="M35.043 361.599h41.569a.955.955 0 00.955-.956.95.95 0 00-.955-.955H35.043a.955.955 0 100 1.911zM35.043 366.542h41.569a.954.954 0 00.955-.955.95.95 0 00-.955-.955H35.043a.955.955 0 100 1.91zM35.043 371.493h22.769a.955.955 0 00.955-.955.95.95 0 00-.956-.955H35.044a.954.954 0 100 1.91z" fill="#8BB9FF"/><path fill-rule="evenodd" clip-rule="evenodd" d="M167.168 334.875H31.404a7.85 7.85 0 01-7.85-7.85v-35.05a7.85 7.85 0 017.85-7.85h135.77a7.85 7.85 0 017.85 7.85v35.05c0 4.332-3.518 7.85-7.856 7.85z" fill="#FFD347"/><path fill-rule="evenodd" clip-rule="evenodd" d="M71.876 308.212h93.502a1.29 1.29 0 011.285 1.285c0 .706-.578 1.284-1.285 1.284H71.876a1.288 1.288 0 01-1.284-1.284 1.29 1.29 0 011.284-1.285zM71.876 317.763h93.502a1.29 1.29 0 011.285 1.285 1.29 1.29 0 01-1.285 1.285H71.876a1.29 1.29 0 01-1.284-1.285 1.29 1.29 0 011.284-1.285z" fill="#fff"/><path d="M47.137 323.151c7.541 0 13.654-6.113 13.654-13.654 0-7.541-6.113-13.655-13.654-13.655-7.541 0-13.654 6.114-13.654 13.655 0 7.541 6.113 13.654 13.654 13.654z" fill="#fff"/><path d="M47.137 318.254a2.071 2.071 0 100-4.142 2.071 2.071 0 000 4.142z" fill="#FFD347"/><path fill-rule="evenodd" clip-rule="evenodd" d="M49.612 303.416c0 2.482-2.475 9.457-2.475 9.457s-2.475-7.042-2.475-9.457c0-1.48 1.11-2.677 2.475-2.677s2.475 1.197 2.475 2.677z" fill="#FFD347"/><path fill-rule="evenodd" clip-rule="evenodd" d="M103.315 170.888c.706-.894.706-2.314.551-3.377-.154-1.062-.47-1.775-2.139-2.522-1.674-.753-4.708-1.547-6.78-1.998-2.071-.45-3.175-.565-4.91-1.318-1.729-.753-4.083-2.139-6.666-2.993-2.582-.854-5.387-1.164-8.24-1.278-2.851-.114-5.744-.027-8.764.74-3.02.767-6.168 2.213-8.441 2.906-2.267.692-3.66.639-4.527.961-.868.33-1.204 1.036-1.318 1.776-.115.74 0 1.507-.054 1.904s-.283.423-.41.908c-.128.484-.155 1.419-.088 2.125.074.706.242 1.191.82 1.547.58.357 1.575.579 2.933.807.43.074.902.142 1.527.216a5.401 5.401 0 1110.412.652c5.86.249 13.823.511 19.4.619 1.385.027 2.622.047 3.732.054a5.401 5.401 0 119.868-.411c1.547-.235 2.536-.618 3.094-1.318z" fill="#A987EB"/><path fill-rule="evenodd" clip-rule="evenodd" d="M63.926 161.888l.41-2.051a69.66 69.66 0 00-3.377 1.197l-.168.767 3.135.087zM65.332 159.534l-.451 2.374 9.04.256-.39-3.915c-.579.007-1.157.027-1.736.068-2.078.154-4.177.578-5.986 1.076a7.187 7.187 0 01-.477.141zM76.026 158.35l.39 3.888 13.224.37c-1.957-.975-3.914-1.957-5.858-2.657-1.944-.699-3.875-1.13-5.865-1.399a29.765 29.765 0 00-1.89-.202zM101.25 165.225c-.383-.175-1.036-.364-1.466-.35-.43.013-.646.229-.357.477.29.249 1.09.525 1.581.592.491.068.679-.074.713-.228.033-.155-.088-.317-.471-.491z" fill="#D8F3FF"/><path d="M66.421 171.261a4.365 4.365 0 10-8.496-2.006 4.365 4.365 0 008.496 2.006z" fill="#A987EB"/><path fill-rule="evenodd" clip-rule="evenodd" d="M62.177 173.148a2.918 2.918 0 01-2.913-2.912 2.918 2.918 0 012.913-2.913c1.6 0 2.912 1.305 2.912 2.913a2.922 2.922 0 01-2.912 2.912z" fill="#D8F3FF"/><path d="M62.177 170.915a.673.673 0 100-1.345.673.673 0 000 1.345zM99.59 171.262a4.364 4.364 0 10-8.497-2.006 4.365 4.365 0 108.496 2.006z" fill="#A987EB"/><path fill-rule="evenodd" clip-rule="evenodd" d="M95.344 173.148a2.918 2.918 0 01-2.912-2.912 2.918 2.918 0 012.912-2.913c1.601 0 2.913 1.305 2.913 2.913a2.922 2.922 0 01-2.913 2.912z" fill="#D8F3FF"/><path fill-rule="evenodd" clip-rule="evenodd" d="M95.344 170.915a.675.675 0 01-.672-.673c0-.37.302-.672.672-.672.37 0 .673.302.673.672 0 .37-.303.673-.673.673zM103.315 256.272c.706-.895.706-2.314.551-3.377-.154-1.063-.47-1.776-2.139-2.522-1.674-.754-4.708-1.547-6.78-1.998-2.071-.451-3.175-.565-4.91-1.318-1.729-.754-4.083-2.139-6.666-2.994-2.582-.854-5.387-1.163-8.24-1.278-2.851-.114-5.744-.026-8.764.74-3.02.767-6.168 2.213-8.441 2.906-2.267.693-3.66.639-4.527.962-.868.33-1.204 1.036-1.318 1.776-.115.74 0 1.506-.054 1.903s-.283.424-.41.908c-.128.485-.155 1.42-.088 2.126.074.706.242 1.19.82 1.547.58.356 1.575.578 2.933.807.43.074.902.141 1.527.215a5.4 5.4 0 1110.412.653c5.86.249 13.823.511 19.4.618 1.385.027 2.622.048 3.732.054a5.4 5.4 0 119.868-.41c1.547-.242 2.536-.619 3.094-1.318z" fill="#A987EB"/><path fill-rule="evenodd" clip-rule="evenodd" d="M63.926 247.265l.41-2.051a69.66 69.66 0 00-3.377 1.197l-.168.767 3.135.087zM65.332 244.918l-.451 2.374 9.04.256-.39-3.915c-.579.007-1.157.027-1.736.067-2.078.155-4.177.579-5.986 1.076-.161.054-.323.095-.477.142zM76.026 243.727l.39 3.888 13.224.37c-1.957-.975-3.914-1.957-5.858-2.657-1.944-.7-3.875-1.13-5.865-1.399a43.725 43.725 0 00-1.89-.202zM101.25 250.601c-.383-.175-1.036-.363-1.466-.349-.43.013-.646.228-.357.477.29.249 1.09.525 1.581.592.491.067.679-.074.713-.229.033-.148-.088-.316-.471-.491z" fill="#D8F3FF"/><path d="M66.42 256.647a4.365 4.365 0 10-8.497-2.007 4.365 4.365 0 008.496 2.007z" fill="#A987EB"/><path fill-rule="evenodd" clip-rule="evenodd" d="M62.177 258.532a2.918 2.918 0 01-2.913-2.913 2.918 2.918 0 012.913-2.912c1.6 0 2.912 1.305 2.912 2.912a2.923 2.923 0 01-2.912 2.913z" fill="#D8F3FF"/><path d="M62.177 256.299a.673.673 0 10-.001-1.346.673.673 0 000 1.346zM99.588 256.648a4.365 4.365 0 10-8.497-2.007 4.365 4.365 0 008.497 2.007z" fill="#A987EB"/><path fill-rule="evenodd" clip-rule="evenodd" d="M95.344 258.532a2.918 2.918 0 01-2.912-2.913 2.918 2.918 0 012.912-2.912c1.601 0 2.913 1.305 2.913 2.912a2.922 2.922 0 01-2.913 2.913z" fill="#D8F3FF"/><path fill-rule="evenodd" clip-rule="evenodd" d="M95.344 256.299a.675.675 0 01-.672-.673c0-.37.302-.673.672-.673.37 0 .673.303.673.673 0 .37-.303.673-.673.673zM105.474 210.23c-1.332-1.076-2.664-2.152-4.466-2.993-1.803-.841-4.076-1.446-5.657-1.87-1.58-.424-2.469-.673-4.076-1.291-1.608-.619-3.935-1.608-6.404-2.227-2.468-.619-5.071-.861-10.486-.457-5.415.403-13.64 1.446-17.858 1.984-4.224.538-4.446.565-4.574.747-.128.181-.168.511-.276 1.513-.108.996-.29 2.657-.114 3.834.175 1.177.7 1.87 2.253 2.543.296.127.632.255 1.002.39a5.23 5.23 0 015.186-5.832 5.23 5.23 0 014.641 7.675l23.825-.061a5.199 5.199 0 01-.612-2.448 5.231 5.231 0 015.22-5.247 5.231 5.231 0 014.64 7.675l7.588-.02c.067-1.312.114-2.617.168-3.915z" fill="#A987EB"/><path d="M63.18 214.871a4.405 4.405 0 10-6.231-6.23 4.405 4.405 0 106.23 6.23z" fill="#A987EB"/><path fill-rule="evenodd" clip-rule="evenodd" d="M60.072 214.69a2.941 2.941 0 002.926-2.946 2.94 2.94 0 00-2.947-2.926 2.94 2.94 0 00-2.925 2.946 2.946 2.946 0 002.946 2.926z" fill="#D8F3FF"/><path fill-rule="evenodd" clip-rule="evenodd" d="M60.065 212.436a.683.683 0 10-.686-.679.691.691 0 00.686.679zM93.131 216.075a4.41 4.41 0 004.392-4.412 4.41 4.41 0 00-4.412-4.392 4.41 4.41 0 00-4.392 4.412c.007 2.421 1.99 4.399 4.412 4.392z" fill="#A987EB"/><path fill-rule="evenodd" clip-rule="evenodd" d="M93.131 214.609a2.941 2.941 0 002.926-2.946 2.941 2.941 0 00-2.946-2.926 2.941 2.941 0 00-2.926 2.946 2.946 2.946 0 002.946 2.926z" fill="#D8F3FF"/><path fill-rule="evenodd" clip-rule="evenodd" d="M93.125 212.356a.684.684 0 10-.686-.68c0 .37.309.68.686.68z" fill="#A987EB"/><path fill-rule="evenodd" clip-rule="evenodd" d="M89.129 204.553c-1.702-.646-3.41-1.291-4.984-1.688-1.574-.397-3.014-.545-4.614-.599-1.601-.054-3.357-.007-5.12.041-.261.807-.524 1.607-.78 2.414 2.799.323 5.597.653 8.133.774 2.535.128 4.802.047 7.076-.027.1-.303.195-.605.289-.915zM73.215 202.185c-.229.855-.451 1.702-.68 2.556l-7.48-1.352c2.718-.403 5.435-.8 8.16-1.204zM53.345 204.842c-.282-.296-.881-.363-1.513-.403-.047.228-.088.592-.155 1.19-.047.444-.114 1.023-.148 1.628.572-.276 1.07-.565 1.413-.868.645-.571.726-1.21.403-1.547zM99.017 206.443c-.034.579-.027 1.124.181 1.5.256.471.828.68 1.716.922.887.249 2.091.538 2.946.316.074-.02.148-.041.215-.067-.908-.687-1.883-1.332-3.061-1.884a22.228 22.228 0 00-1.997-.787z" fill="#D8F3FF"/><path d="M30.1 174.44a8.563 8.563 0 008.562-8.563 8.563 8.563 0 10-8.563 8.563z" fill="#8BB9FF"/><path d="M25.431 165.877h9.33" stroke="#3383FF" stroke-width="2.835" stroke-miterlimit="22.926" stroke-linecap="round" stroke-linejoin="round"/><path d="M30.1 261.276a8.563 8.563 0 10-.001-17.126 8.563 8.563 0 000 17.126z" fill="#8BB9FF"/><path d="M25.431 252.713h9.33" stroke="#3383FF" stroke-width="2.835" stroke-miterlimit="22.926" stroke-linecap="round" stroke-linejoin="round"/><path d="M30.1 217.858a8.563 8.563 0 10-.001-17.126 8.563 8.563 0 000 17.126z" fill="#8BB9FF"/><path d="M25.431 209.295h9.33" stroke="#3383FF" stroke-width="2.835" stroke-miterlimit="22.926" stroke-linecap="round" stroke-linejoin="round"/><path fill-rule="evenodd" clip-rule="evenodd" d="M178.071 378.448H99.838a5.642 5.642 0 01-5.644-5.643v-20.879a5.642 5.642 0 015.644-5.643h78.233a5.642 5.642 0 015.643 5.643v20.879a5.642 5.642 0 01-5.643 5.643z" fill="#3383FF"/><path fill-rule="evenodd" clip-rule="evenodd" d="M114.649 139.806h-95.03a5.746 5.746 0 01-5.743-5.744v-20.684a5.745 5.745 0 015.744-5.744h95.029a5.746 5.746 0 015.744 5.744v20.684c-.007 3.174-2.576 5.744-5.744 5.744z" fill="#8BB9FF"/><path fill-rule="evenodd" clip-rule="evenodd" d="M46.767 117.091h64.546a1.47 1.47 0 011.466 1.467 1.47 1.47 0 01-1.466 1.466H46.767a1.47 1.47 0 01-1.466-1.466c0-.801.659-1.467 1.466-1.467zM46.767 127.47h37.64a1.47 1.47 0 011.467 1.466 1.47 1.47 0 01-1.467 1.467h-37.64a1.47 1.47 0 01-1.466-1.467c0-.807.659-1.466 1.466-1.466z" fill="#3383FF"/><path d="M30.1 132.515a8.563 8.563 0 10-.001-17.126 8.563 8.563 0 000 17.126z" fill="#3383FF"/><path d="M25.431 123.952h9.33M30.1 119.284v9.329" stroke="#fff" stroke-width="2.835" stroke-miterlimit="22.926" stroke-linecap="round" stroke-linejoin="round"/><path d="M178.165 132.905v-17.912M172.609 122.566l5.556-7.573 5.549 7.573M162.022 114.993v17.912M167.571 125.338l-5.549 7.567-5.556-7.567" stroke="#3383FF" stroke-width="2.835" stroke-miterlimit="22.926" stroke-linecap="round" stroke-linejoin="round"/><path fill-rule="evenodd" clip-rule="evenodd" d="M457.905 61.377c-3.464-8.838-12.054-15.1-22.116-15.1-13.13 0-23.771 10.64-23.771 23.77 0 13.13 10.641 23.771 23.771 23.771 10.062 0 18.645-6.269 22.116-15.1h11.636a2.07 2.07 0 001.171-.357l5.387-3.618a2.103 2.103 0 012.348 0l4.749 3.188a2.102 2.102 0 002.347 0l4.722-3.168a2.108 2.108 0 012.388.027l4.103 2.899a2.114 2.114 0 002.717-.242l15.76-16.063h-57.328v-.007zM423.17 76.95a6.898 6.898 0 01-6.901-6.901 6.898 6.898 0 016.901-6.902 6.898 6.898 0 016.901 6.902 6.898 6.898 0 01-6.901 6.9z" fill="#9150D9"/><path d="M673.751 197.726h-99.65c-5.105 0-9.248-4.143-9.248-9.249V50.306c0-5.105 4.143-9.249 9.248-9.249h99.65c5.106 0 9.249 4.144 9.249 9.249v138.171c0 5.106-4.143 9.249-9.249 9.249z" fill="#fff" stroke="#3383FF" stroke-width="2.835" stroke-miterlimit="22.926" stroke-linecap="round" stroke-linejoin="round"/><path fill-rule="evenodd" clip-rule="evenodd" d="M585.812 52.862c2.905 0 5.26 2.26 5.26 5.051 0 2.792-2.355 5.052-5.26 5.052-2.906 0-5.26-2.26-5.26-5.052 0-2.784 2.354-5.051 5.26-5.051z" fill="#FFB726" stroke="#FC865F" stroke-width="1.85" stroke-miterlimit="22.926" stroke-linecap="round" stroke-linejoin="round"/><path d="M582.045 74.722h29.495a.955.955 0 100-1.91h-29.495a.954.954 0 100 1.91zM582.045 103.894h18.06a.954.954 0 00.955-.955.95.95 0 00-.955-.955h-18.06a.954.954 0 100 1.91zM582.045 133.073h29.495a.955.955 0 100-1.91h-29.495a.954.954 0 100 1.91z" fill="#7427CA"/><path d="M582.045 162.245h18.733a.955.955 0 100-1.91h-18.733a.954.954 0 100 1.91z" fill="#B284E4"/><path d="M443.201 220.488h-32.434v32.434h32.434v-32.434z" fill="#8BB9FF"/><path fill-rule="evenodd" clip-rule="evenodd" d="M414.937 232.777l11.522 11.522c5.583-9.666 11.159-19.332 16.742-28.997-1.244-.72-2.496-1.44-3.74-2.159-4.621 7.997-9.235 15.995-13.856 23.999l-7.661-7.661a1216.002 1216.002 0 00-3.007 3.296z" fill="#3383FF"/><path d="M343 275.159c22.162 0 40.129-17.966 40.129-40.129 0-22.163-17.967-40.129-40.129-40.129-22.163 0-40.129 17.966-40.129 40.129 0 22.163 17.966 40.129 40.129 40.129z" fill="#8BB9FF"/><path d="M353.297 221.463v-5.408c0-5.677-4.621-10.298-10.298-10.298s-10.298 4.621-10.298 10.298v5.408a3.871 3.871 0 00-3.679 3.861v10.096c0 7.722 6.256 13.977 13.977 13.977 7.722 0 13.978-6.255 13.978-13.977v-10.096a3.871 3.871 0 00-3.68-3.861zm-7.399 19.392h-5.932l1.143-7.998a3.566 3.566 0 01-1.695-3.033 3.584 3.584 0 013.585-3.585 3.584 3.584 0 013.586 3.585c0 1.338-.74 2.489-1.823 3.107l1.136 7.924zm3.599-19.412h-12.988v-5.388c0-3.578 2.912-6.498 6.497-6.498a6.507 6.507 0 016.498 6.498v5.388h-.007z" fill="#7427CA"/><path d="M356.842 262.265h-27.678a3.591 3.591 0 01-3.592-3.592 3.591 3.591 0 013.592-3.592h27.678a3.591 3.591 0 013.592 3.592 3.591 3.591 0 01-3.592 3.592z" fill="#3383FF"/><path fill-rule="evenodd" clip-rule="evenodd" d="M599.419 56.454h30.914c.807 0 1.467.659 1.467 1.466a1.47 1.47 0 01-1.467 1.466h-30.914a1.47 1.47 0 01-1.466-1.466 1.47 1.47 0 011.466-1.466z" fill="#FC865F"/><path d="M492.343 99.966h-9.174v9.652h9.174v-9.652zM505.258 93.119h-9.175v16.499h9.175v-16.5zM518.172 85.693h-9.174v23.925h9.174V85.693z" fill="#DBB7F3"/><path d="M516.309 98.554h48.544" stroke="#3383FF" stroke-width="2.835" stroke-miterlimit="22.926" stroke-linecap="round" stroke-linejoin="round"/><path d="M516.309 102.159a3.605 3.605 0 100-7.21 3.605 3.605 0 000 7.21z" fill="#3383FF"/><path d="M641.896 82.962h-9.175v9.652h9.175v-9.652zM654.81 76.121h-9.175v16.5h9.175v-16.5zM667.731 68.689h-9.174v23.925h9.174V68.69zM641.896 174.238h-9.175v6.289h9.175v-6.289zM654.81 174.238h-9.175v6.289h9.175v-6.289zM667.731 174.238h-9.174v6.289h9.174v-6.289zM641.896 107.708h-9.175v14.361h9.175v-14.361zM654.81 100.867h-9.175v21.208h9.175v-21.208zM667.731 106.894h-9.174v15.181h9.174v-15.181zM641.896 138.958h-9.175v12.343h9.175v-12.343zM654.81 141.528h-9.175v9.773h9.175v-9.773zM667.731 140.156h-9.174v11.145h9.174v-11.145z" fill="#DBB7F3"/><path fill-rule="evenodd" clip-rule="evenodd" d="M614.782 91.397c.464-.585.464-1.52.363-2.22-.101-.7-.309-1.164-1.405-1.661-1.104-.498-3.101-1.016-4.46-1.319-1.365-.296-2.092-.37-3.229-.867-1.136-.498-2.683-1.406-4.385-1.971-1.695-.558-3.545-.767-5.422-.84-1.876-.075-3.78-.021-5.764.483-1.984.505-4.056 1.453-5.549 1.91-1.493.458-2.408.418-2.973.633-.572.215-.794.68-.868 1.163-.074.485 0 .99-.04 1.252-.041.262-.189.282-.269.598-.081.316-.101.935-.054 1.4.047.463.161.786.538 1.015.383.235 1.036.383 1.93.531.283.047.592.095 1.003.142a3.553 3.553 0 013.484-4.251 3.558 3.558 0 013.558 3.551c0 .397-.067.78-.188 1.137 3.854.161 9.094.336 12.76.403.908.02 1.721.027 2.455.034a3.552 3.552 0 116.484-.27c1.015-.147 1.668-.396 2.031-.853z" fill="#B284E4"/><path fill-rule="evenodd" clip-rule="evenodd" d="M588.872 85.47l.269-1.344c-.787.248-1.506.518-2.219.787l-.115.504 2.065.054zM589.794 83.924l-.296 1.56 5.946.169-.256-2.577c-.376 0-.76.02-1.143.047-1.365.101-2.744.384-3.935.707-.107.033-.208.067-.316.094zM596.83 83.144l.255 2.556 8.697.242c-1.284-.646-2.576-1.285-3.854-1.75-1.278-.463-2.549-.739-3.861-.92a22.644 22.644 0 00-1.237-.128zM613.423 87.664c-.255-.115-.679-.243-.961-.229-.283.007-.424.155-.236.316.188.162.713.343 1.043.39.323.047.45-.047.471-.148.02-.107-.061-.215-.317-.33z" fill="#fff"/><path d="M590.541 91.666a2.871 2.871 0 10-5.589-1.321 2.871 2.871 0 005.589 1.321z" fill="#B284E4"/><path fill-rule="evenodd" clip-rule="evenodd" d="M587.722 92.883a1.92 1.92 0 01-1.917-1.917 1.92 1.92 0 011.917-1.917 1.92 1.92 0 011.917 1.917 1.92 1.92 0 01-1.917 1.917z" fill="#fff"/><path d="M612.361 91.665a2.873 2.873 0 10-5.592-1.319 2.873 2.873 0 005.592 1.32z" fill="#B284E4"/><path fill-rule="evenodd" clip-rule="evenodd" d="M609.542 92.883a1.92 1.92 0 01-1.917-1.917 1.92 1.92 0 011.917-1.917 1.92 1.92 0 011.917 1.917 1.928 1.928 0 01-1.917 1.917z" fill="#fff"/><path fill-rule="evenodd" clip-rule="evenodd" d="M614.782 149.593c.464-.586.464-1.521.363-2.22-.101-.7-.309-1.164-1.405-1.661-1.104-.498-3.101-1.016-4.46-1.319-1.365-.296-2.092-.37-3.229-.867-1.136-.498-2.683-1.406-4.385-1.971-1.695-.559-3.545-.767-5.422-.841-1.876-.074-3.78-.02-5.764.484-1.984.505-4.056 1.453-5.549 1.91-1.493.458-2.408.418-2.973.633-.572.215-.794.679-.868 1.163-.074.485 0 .989-.04 1.251-.041.263-.189.283-.269.599-.081.316-.101.935-.054 1.399.047.464.161.787.538 1.016.383.235 1.036.383 1.93.531.283.047.592.094 1.003.142a3.554 3.554 0 013.484-4.252 3.559 3.559 0 013.558 3.552c0 .397-.067.78-.188 1.137 3.854.161 9.094.336 12.76.403.908.02 1.721.027 2.455.034a3.553 3.553 0 116.733-1.574c0 .457-.088.901-.249 1.305 1.015-.148 1.668-.39 2.031-.854z" fill="#B284E4"/><path fill-rule="evenodd" clip-rule="evenodd" d="M588.872 143.673l.269-1.345c-.787.249-1.506.518-2.219.787l-.115.505 2.065.053zM589.794 142.126l-.296 1.561 5.946.168-.256-2.576c-.376 0-.76.02-1.143.047-1.365.101-2.744.383-3.935.706-.107.034-.208.061-.316.094zM596.83 141.339l.255 2.556 8.697.243c-1.284-.646-2.576-1.285-3.854-1.749-1.278-.464-2.549-.74-3.861-.922a33.027 33.027 0 00-1.237-.128zM613.423 145.866c-.255-.114-.679-.242-.961-.228-.283.006-.424.154-.236.316.188.161.713.343 1.043.39.323.047.45-.047.471-.148.02-.108-.061-.215-.317-.33z" fill="#fff"/><path d="M590.541 149.869a2.87 2.87 0 10-5.59-1.32 2.872 2.872 0 105.59 1.32z" fill="#B284E4"/><path fill-rule="evenodd" clip-rule="evenodd" d="M587.722 151.079a1.92 1.92 0 01-1.917-1.917 1.92 1.92 0 011.917-1.917 1.92 1.92 0 011.917 1.917 1.92 1.92 0 01-1.917 1.917z" fill="#fff"/><path d="M612.361 149.868a2.872 2.872 0 10-5.591-1.32 2.872 2.872 0 005.591 1.32z" fill="#B284E4"/><path fill-rule="evenodd" clip-rule="evenodd" d="M609.542 151.079a1.92 1.92 0 01-1.917-1.917 1.92 1.92 0 011.917-1.917 1.92 1.92 0 011.917 1.917 1.928 1.928 0 01-1.917 1.917z" fill="#fff"/><path fill-rule="evenodd" clip-rule="evenodd" d="M615.704 118.288c-.875-.706-1.756-1.419-2.94-1.97-1.184-.552-2.684-.949-3.72-1.231-1.042-.283-1.621-.444-2.683-.848-1.056-.41-2.59-1.056-4.211-1.466-1.621-.404-3.336-.565-6.894-.303-3.559.263-8.973.955-11.751 1.305-2.778.357-2.926.37-3.007.491-.087.121-.107.336-.181.996-.074.659-.189 1.748-.074 2.522.114.773.464 1.231 1.486 1.675.195.087.417.168.659.255a3.764 3.764 0 01-.02-.383 3.438 3.438 0 013.437-3.451 3.442 3.442 0 013.054 5.052l15.672-.04a3.43 3.43 0 01-.403-1.615 3.437 3.437 0 013.437-3.45 3.437 3.437 0 013.45 3.437c0 .585-.141 1.13-.397 1.614l4.991-.013c.027-.868.061-1.722.095-2.577z" fill="#B284E4"/><path d="M587.876 121.346a2.9 2.9 0 10-4.1-4.1 2.9 2.9 0 004.1 4.1z" fill="#B284E4"/><path fill-rule="evenodd" clip-rule="evenodd" d="M585.839 121.221a1.93 1.93 0 10-.013-3.861 1.93 1.93 0 00.013 3.861z" fill="#fff"/><path fill-rule="evenodd" clip-rule="evenodd" d="M607.585 122.136a2.913 2.913 0 002.892-2.906 2.912 2.912 0 00-2.906-2.892 2.912 2.912 0 00-2.892 2.906 2.913 2.913 0 002.906 2.892z" fill="#B284E4"/><path fill-rule="evenodd" clip-rule="evenodd" d="M607.585 121.167a1.93 1.93 0 10-.013-3.861 1.93 1.93 0 00.013 3.861zM604.955 114.555c-1.123-.423-2.247-.847-3.276-1.11-1.036-.262-1.984-.356-3.033-.39-1.05-.033-2.206-.006-3.363.027-.175.532-.343 1.056-.518 1.588 1.843.215 3.679.43 5.347.511 1.668.081 3.161.034 4.655-.014.06-.208.121-.41.188-.612zM594.482 112.995l-.444 1.681-4.923-.887c1.789-.263 3.578-.525 5.367-.794zM581.413 114.744c-.188-.195-.579-.236-.996-.263-.033.155-.06.391-.101.781-.033.296-.074.672-.1 1.069.376-.181.706-.37.928-.572.43-.376.484-.793.269-1.015zM611.453 115.8c-.021.383-.021.74.121.989.168.309.545.443 1.13.605.585.161 1.379.35 1.937.208a1.11 1.11 0 00.141-.047c-.598-.45-1.237-.881-2.011-1.237a14.168 14.168 0 00-1.318-.518z" fill="#fff"/><path fill-rule="evenodd" clip-rule="evenodd" d="M615.704 176.484c-.875-.706-1.756-1.419-2.94-1.97-1.184-.552-2.684-.949-3.72-1.231-1.042-.283-1.621-.444-2.683-.848-1.056-.41-2.59-1.063-4.211-1.466-1.621-.404-3.336-.565-6.894-.303-3.559.262-8.973.955-11.751 1.305-2.778.356-2.926.37-3.007.491-.087.121-.107.336-.181.995-.074.66-.189 1.749-.074 2.523.114.773.464 1.231 1.486 1.675.195.087.417.168.659.255a3.78 3.78 0 01-.02-.383 3.438 3.438 0 013.437-3.451 3.442 3.442 0 013.054 5.052l15.672-.041a3.422 3.422 0 01-.403-1.614 3.438 3.438 0 013.437-3.451 3.438 3.438 0 013.45 3.438c0 .585-.141 1.13-.397 1.614l4.991-.014c.027-.86.061-1.715.095-2.576z" fill="#DBB7F3"/><path d="M587.877 179.547a2.898 2.898 0 10-4.099-4.101 2.898 2.898 0 004.099 4.101z" fill="#DBB7F3"/><path fill-rule="evenodd" clip-rule="evenodd" d="M585.839 179.424a1.931 1.931 0 10-1.937-1.924 1.938 1.938 0 001.937 1.924z" fill="#fff"/><path fill-rule="evenodd" clip-rule="evenodd" d="M607.585 180.332a2.913 2.913 0 002.892-2.906 2.912 2.912 0 00-2.906-2.892 2.911 2.911 0 00-2.892 2.905 2.905 2.905 0 002.906 2.893z" fill="#DBB7F3"/><path fill-rule="evenodd" clip-rule="evenodd" d="M607.585 179.37a1.931 1.931 0 10-1.937-1.924 1.94 1.94 0 001.937 1.924zM604.955 172.758c-1.123-.424-2.247-.848-3.276-1.11-1.036-.262-1.984-.356-3.033-.39-1.05-.034-2.206-.007-3.363.027-.175.531-.343 1.056-.518 1.587 1.843.215 3.679.431 5.347.511 1.668.081 3.161.034 4.655-.013.06-.215.121-.417.188-.612zM594.482 171.197l-.444 1.682-4.923-.888c1.789-.269 3.578-.531 5.367-.794zM581.413 172.94c-.188-.195-.579-.236-.996-.263-.033.155-.06.39-.101.78-.033.296-.074.673-.1 1.07.376-.182.706-.37.928-.572.43-.37.484-.787.269-1.015zM611.453 173.996c-.021.383-.021.739.121.988.168.31.545.444 1.13.606.585.161 1.379.349 1.937.208a1.11 1.11 0 00.141-.047c-.598-.451-1.237-.881-2.011-1.237a14.168 14.168 0 00-1.318-.518z" fill="#fff"/><path d="M207.922 301.97H83.102c-6.45 0-11.683-5.233-11.683-11.684v-90.495c0-6.451 5.233-11.684 11.684-11.684h124.819c6.451 0 11.684 5.233 11.684 11.684v90.495c0 6.451-5.233 11.684-11.684 11.684z" fill="#DDEAFF" stroke="#3383FF" stroke-width="2.835" stroke-miterlimit="22.926" stroke-linecap="round" stroke-linejoin="round"/><path d="M87.199 201.634a3.047 3.047 0 100-6.094 3.047 3.047 0 000 6.094z" fill="#7427CA"/><path d="M87.199 198.587v-12.006a3.112 3.112 0 013.114-3.115 3.112 3.112 0 013.114 3.115v1.526" stroke="#3383FF" stroke-width="2.835" stroke-miterlimit="22.926" stroke-linecap="round" stroke-linejoin="round"/><path d="M101.156 201.634a3.047 3.047 0 100-6.094 3.047 3.047 0 000 6.094z" fill="#7427CA"/><path d="M101.156 198.587v-12.006a3.112 3.112 0 013.114-3.115 3.112 3.112 0 013.114 3.115v1.526" stroke="#3383FF" stroke-width="2.835" stroke-miterlimit="22.926" stroke-linecap="round" stroke-linejoin="round"/><path d="M115.113 201.634a3.047 3.047 0 100-6.094 3.047 3.047 0 000 6.094z" fill="#7427CA"/><path d="M115.113 198.587v-12.006a3.112 3.112 0 013.114-3.115 3.113 3.113 0 013.115 3.115v1.526" stroke="#3383FF" stroke-width="2.835" stroke-miterlimit="22.926" stroke-linecap="round" stroke-linejoin="round"/><path d="M129.077 201.634a3.047 3.047 0 100-6.094 3.047 3.047 0 000 6.094z" fill="#7427CA"/><path d="M129.077 198.587v-12.006a3.112 3.112 0 013.114-3.115 3.112 3.112 0 013.114 3.115v1.526" stroke="#3383FF" stroke-width="2.835" stroke-miterlimit="22.926" stroke-linecap="round" stroke-linejoin="round"/><path d="M143.034 201.634a3.047 3.047 0 100-6.094 3.047 3.047 0 000 6.094z" fill="#7427CA"/><path d="M143.034 198.587v-12.006a3.112 3.112 0 013.114-3.115 3.112 3.112 0 013.114 3.115v1.526" stroke="#3383FF" stroke-width="2.835" stroke-miterlimit="22.926" stroke-linecap="round" stroke-linejoin="round"/><path d="M156.991 201.634a3.047 3.047 0 100-6.094 3.047 3.047 0 000 6.094z" fill="#7427CA"/><path d="M156.991 198.587v-12.006a3.112 3.112 0 013.114-3.115 3.112 3.112 0 013.114 3.115v1.526" stroke="#3383FF" stroke-width="2.835" stroke-miterlimit="22.926" stroke-linecap="round" stroke-linejoin="round"/><path d="M170.954 201.634a3.047 3.047 0 100-6.094 3.047 3.047 0 000 6.094z" fill="#7427CA"/><path d="M170.955 198.587v-12.006a3.112 3.112 0 013.114-3.115 3.112 3.112 0 013.114 3.115v1.526" stroke="#3383FF" stroke-width="2.835" stroke-miterlimit="22.926" stroke-linecap="round" stroke-linejoin="round"/><path d="M184.912 201.634a3.047 3.047 0 100-6.094 3.047 3.047 0 000 6.094z" fill="#7427CA"/><path d="M184.912 198.587v-12.006a3.112 3.112 0 013.114-3.115 3.112 3.112 0 013.114 3.115v1.526" stroke="#3383FF" stroke-width="2.835" stroke-miterlimit="22.926" stroke-linecap="round" stroke-linejoin="round"/><path d="M198.869 201.634a3.047 3.047 0 100-6.094 3.047 3.047 0 000 6.094z" fill="#7427CA"/><path d="M198.869 198.587v-12.006a3.112 3.112 0 013.114-3.115 3.112 3.112 0 013.114 3.115v1.526" stroke="#3383FF" stroke-width="2.835" stroke-miterlimit="22.926" stroke-linecap="round" stroke-linejoin="round"/><path d="M91.658 213.331v79.128M109.611 213.331v79.128M127.563 213.331v79.128M145.509 213.331v79.128M163.461 213.331v79.128M181.414 213.331v79.128M199.36 213.331v79.128M199.36 228.041H91.658M199.36 244.279H91.658M199.36 260.523H91.658M199.36 276.767H91.658" stroke="#8BB9FF" stroke-width="2.835" stroke-miterlimit="22.926" stroke-linecap="round" stroke-linejoin="round"/><path d="M111.804 233.725H92.997a5.692 5.692 0 01-5.69-5.69 5.692 5.692 0 015.69-5.691h18.807a5.692 5.692 0 015.69 5.691 5.687 5.687 0 01-5.69 5.69zM143.572 266.213h-40.909a5.692 5.692 0 01-5.69-5.69 5.692 5.692 0 015.69-5.691h40.909a5.692 5.692 0 015.69 5.691 5.696 5.696 0 01-5.69 5.69z" fill="#3383FF"/><path d="M151.307 249.969H139.59a5.693 5.693 0 01-5.691-5.69 5.693 5.693 0 015.691-5.691h11.717a5.692 5.692 0 015.69 5.691 5.696 5.696 0 01-5.69 5.69z" fill="#7427CA"/><path d="M180.936 282.457h-26.757a5.692 5.692 0 01-5.69-5.69 5.692 5.692 0 015.69-5.691h26.757a5.692 5.692 0 015.691 5.691 5.688 5.688 0 01-5.691 5.69z" fill="#8F50D9"/><path d="M184.152 233.725h-4.574a5.692 5.692 0 01-5.691-5.69 5.692 5.692 0 015.691-5.691h4.574a5.692 5.692 0 015.69 5.691 5.687 5.687 0 01-5.69 5.69z" fill="#fff"/><path fill-rule="evenodd" clip-rule="evenodd" d="M227.186 455.161s.108-1.036.942-1.728c.834-.693 1.998-1.299 4.453-.74 2.462.558 3.666.975 3.666.975l-1.998 4.271-7.063-2.778z" fill="#F38A7C"/><path fill-rule="evenodd" clip-rule="evenodd" d="M232.251 457.119l1.729-3.458 5.569 6.505-7.298-3.047z" fill="#5952BA"/><path fill-rule="evenodd" clip-rule="evenodd" d="M239.589 455.08s1.07-2.125 1.211-4.425c.162-2.577-.868-4.662-2.67-5.314-1.48-.538-3.061.814-3.034 3.195.027 2.381.242 3.033.242 3.033l4.251 3.511z" fill="#5D19AB"/><path fill-rule="evenodd" clip-rule="evenodd" d="M314.668 438.534l-68.695 35.542a2.363 2.363 0 00-.969 3.262 2.361 2.361 0 003.135.928l67.754-35.057-1.225-4.675z" fill="#3383FF"/><path fill-rule="evenodd" clip-rule="evenodd" d="M278.319 462.648l14.792-7.655-5.092-2.677-14.684 7.601 4.984 2.731z" fill="#35F"/><path fill-rule="evenodd" clip-rule="evenodd" d="M433.858 451.717l44.972 35.771a2.366 2.366 0 003.256-.303 2.354 2.354 0 00-.316-3.383l-34.109-28.244c-1.413-1.17-.586-3.471 1.251-3.471h5.993l-1.769-4.782h-24.935l5.657 4.412z" fill="#8BB9FF"/><path fill-rule="evenodd" clip-rule="evenodd" d="M450.398 457.832l-2.744-2.274c-1.413-1.17-.585-3.471 1.251-3.471h5.993l-.821-2.226h-22.6l2.381 1.856 7.682 6.115h8.858zM396.325 443.531l44.972 35.771a2.365 2.365 0 003.256-.303 2.354 2.354 0 00-.316-3.383l-31.641-26.199c-2.246-1.863-.935-5.516 1.985-5.516h2.784l-1.769-4.782h-24.934l5.663 4.412z" fill="#3383FF"/><path fill-rule="evenodd" clip-rule="evenodd" d="M413.921 450.52h-8.818l9.195 7.312h8.455l-8.832-7.312z" fill="#35F"/><path fill-rule="evenodd" clip-rule="evenodd" d="M551.979 314.891h-68.205v20.038l-73.189 89.533h-83.782l-46.506 30.457 29.273 15.995 43.075-21.45 103.726-.847 95.608-114.193v-19.533z" fill="#A987EB"/><path d="M489.908 324.799h60.517M489.908 337.505h60.517M476.402 350.836h60.516M464.712 363.959h60.509M454.521 376.665h60.517M445.616 389.371h60.516M438.237 397.766l59.339 4.775M440.484 415.436l36.127 10.957M448.037 404.633l36.356 10.177M425.894 421.214l38.804 16.661M419.901 429.278l36.477 19.964M314.709 429.857l36.476 19.964M335.863 428.545l36.477 19.971M358.167 429.278l36.477 19.964M378.743 429.278l36.477 19.964M399.319 429.541l36.476 19.963M281.165 440.666l43.035 23.307M294.92 433.543l43.035 23.307" stroke="#8D66D9" stroke-width="2.835" stroke-miterlimit="22.926" stroke-linecap="round" stroke-linejoin="round"/><path fill-rule="evenodd" clip-rule="evenodd" d="M499.096 314.891h-14.051l-1.271.834v19.204l-.175.208.175 1.749 15 14.596 6.416 3.121c-1.728-3.686-6.443-7.964-10.264-11.919-3.82-3.955-3.612-6.612-3.706-10.809-.121-4.991 2.307-8.482 4.325-10.991 1.399-1.742 2.65-3.672 3.551-5.993zM478.03 376.336l-56.925 45.51s-26.057 2.475-49.452 1.655c-23.4-.821-32.669-3.276-40.566 2.434-7.89 5.704-50.797 28.984-50.797 28.984l10.076 5.509s27.269-9.202 38.138-15.807c10.016-6.087 14.435-10.284 24.84-9.76 7.635.39 65.615 5.179 76.014 5.744 9.262.498 15.982-.437 23.946-8.845 2.785-2.939 7.143-7.486 12.181-12.228 1.278-1.204 7.641-5.307 10.359-8.219 8.152-8.738 21.039-25.614 29.017-40.856l-26.831 5.879z" fill="#8D66D9"/><path fill-rule="evenodd" clip-rule="evenodd" d="M260.542 473.127l-35.952-13.89a2.278 2.278 0 01-1.305-2.953l.108-.282a2.277 2.277 0 012.952-1.305l35.952 13.89a2.276 2.276 0 011.305 2.953l-.107.282a2.288 2.288 0 01-2.953 1.305z" fill="#5D19AB"/><path fill-rule="evenodd" clip-rule="evenodd" d="M333.865 370.524a4.678 4.678 0 01-2.993-2.684l-15.074-35.857 1.225-.754c.343-.215.76-.282 1.156-.188l39.544 8.993a4.698 4.698 0 013.283 2.758l16.156 38.494a1.367 1.367 0 01-.349 1.554l-.693.626-42.255-12.942z" fill="#7427CA"/><path fill-rule="evenodd" clip-rule="evenodd" d="M383.149 425.935l-1.52 8.408 48.207 3.236-46.687-11.644z" fill="#5952BA"/><path fill-rule="evenodd" clip-rule="evenodd" d="M410.848 381.266c4.917-4.849 18.504-26.67 25.412-35.286 4.089-5.092 8.67-8.616 15.779-9.04 1.487-.088 3.115-.061 4.81.034 1.163.067 3.746 2.434 2.266 9.726-1.479 7.291-25.687 42.328-30.651 48.564-4.964 6.235-9.195 11.818-16.863 6.82-11.038-7.19-28.338-33.726-28.338-33.726s-2.67-.457-4.984-3.067c-2.025-2.287-3.397-4.432-5.475-6.551-1.944-1.978-3.632-5.596.067-7.601 3.699-2.004 4.796-1.695 4.796-1.695s-.949-2.536-2.428-3.908c-1.48-1.372-3.592-1.372-6.337-2.643-2.744-1.265-3.275-2.429-2.851-3.068.423-.638 2.112.108 5.179.949 3.067.847 4.648.316 6.551 2.004 1.904 1.689 3.484 5.388 5.072 7.715 1.587 2.328 2.112 3.276 2.112 3.276s-.747-3.424-.316-6.235c.437-2.832.914-3.841 2.112-3.801 1.278.041.941 2.55 1.264 4.648.256 1.628.633 2.536.532 3.592-.108 1.056-.256 2.321.376 3.592.633 1.271 1.393 4.11 1.635 5.812.296 2.105 1.796 3.336 5.018 6.887 2.024 2.233 6.813 7.144 9.833 9.491 2.012 1.587 5.429 3.511 5.429 3.511z" fill="#F38A7C"/><path fill-rule="evenodd" clip-rule="evenodd" d="M401.276 391.766l-68.756-20.408a1.106 1.106 0 00-1.392.801 1.113 1.113 0 00.76 1.332l68.816 20.427a1.11 1.11 0 001.413-.867c.101-.572-.289-1.117-.841-1.285z" fill="#7427CA"/><path fill-rule="evenodd" clip-rule="evenodd" d="M415.953 384.945l12.073 2.456 26.986-48.853v-1.642a32.846 32.846 0 00-2.966.041c-7.11.417-11.69 3.941-15.78 9.04-6.511 8.118-18.955 27.961-24.484 34.277l4.171 4.681z" fill="#FCAF91"/><path fill-rule="evenodd" clip-rule="evenodd" d="M424.583 384.945l18.181-27.019-.296-6.229c-4.601 5.038-26.515 30.134-26.515 30.134l8.63 3.114z" fill="#F38A7C"/><path fill-rule="evenodd" clip-rule="evenodd" d="M369.03 350.016c-.888.309-1.204 2.455-.962 4.977.243 2.523 1.561 4.749 2.361 5.751.794 1.003 2.193.848 2.415-.524.222-1.373-1.036-5.509-1.177-6.754-.141-1.244-2.637-3.45-2.637-3.45z" fill="#FCAF91"/><path fill-rule="evenodd" clip-rule="evenodd" d="M375.373 347.937c-2.3-.8-4.325-.289-5.192.216-.633.37-1.131 1.083-1.151 2.394-.04 2.408.249 4.467.868 6.209.437 1.217 1.123 2.401 1.628 2.63 1.816.813 1.796-1.709 1.816-3.68.013-1.237-.027-3.894-.135-4.264 0 0 1.07.269 1.742.121 1.689-.377 2.704-2.119 2.704-2.119s-.625-.928-2.28-1.507zM380.747 387.992l-36.106-10.715c-7.769-1.594-11.166-1.708-16.742 4.07-5.576 5.778-20.717 23.703-36.053 40.633-15.336 16.93-23.905 26.092-32.865 31.076-8.966 4.977 11.953 7.372 12.148 6.773.195-.598 11.953-11.724 26.091-21.302 14.146-9.578 34.264-29.098 38.246-32.878 3.982-3.787 28.008 10.029 36.988 13.937 8.959 3.894 11.018 4.587 11.018 4.587l-2.725-36.181z" fill="#FCAF91"/><path fill-rule="evenodd" clip-rule="evenodd" d="M458.564 418.355c-4.803 8.468-11.307 16.56-17.677 18.881-6.376 2.32-16.688 1.735-33.026-3.478-16.338-5.213-27.12-8.576-27.12-8.576s.874-5.798.699-16.93c-.188-11.879-.699-20.26-.699-20.26l19.957 5.926c4.439 1.393 11.32 3.525 15.248 4.763 16.91 5.334 23.435 2.172 23.435 2.172l19.183 17.502z" fill="#3384FF"/><path opacity=".17" fill-rule="evenodd" clip-rule="evenodd" d="M455.389 423.501a78.13 78.13 0 003.175-5.146l-19.183-17.509s-7.265 2.536-21.491-1.58c0 0 8.469 7.997 18.538 13.701a1625.677 1625.677 0 0018.961 10.534z" fill="#270D45"/><path fill-rule="evenodd" clip-rule="evenodd" d="M256.822 455.309l45.766-20.609c10.634-8.078 22.876-19.486 29.259-25.54l6.673-7.271c-5.623.108-16.843 8.394-28.789 16.197-7.52 4.91-21.759 13.096-31.277 18.484-7.695 8.038-13.466 13.183-19.412 16.486l-.404.235-1.809 2.005c-.007.006-.007.013-.007.013z" fill="#F38A7C"/><path fill-rule="evenodd" clip-rule="evenodd" d="M251.011 450.863c7.264.249 12.141.632 17.313-2.179 6.189-3.363 31.688-19.137 41.448-26.307 9.76-7.17 15.537-13.345 21.114-17.327 5.576-3.982 9.161-4.076 15.934-1.042 6.774 3.033 25.412 13.782 34.264 18.1l-.343 3.074 2.401.753s-.881 4.702-1.157 5.704c0 0-26.717-4.701-35.609-5.26-8.892-.558-10.513 1.709-15.04 6.559-4.527 4.849-10.19 10.19-27.974 16.331-17.785 6.148-26.663 8.408-30.565 12.612-2.979 3.215-3.618 8.091-5.535 10.156-2.913 3.142-6.471-.43-9.505-2.878-2.784-2.247-20.972-16.487-23.932-18.76-2.011-1.54-2.105-3.074-1.13-3.881.976-.807 3.074-.484 5.173 1.13 2.112 1.621 7.035 3.013 13.143 3.215z" fill="#FCAF91"/><path fill-rule="evenodd" clip-rule="evenodd" d="M380.748 425.182l.343-3.074c-8.852-4.325-27.497-15.067-34.264-18.1-1.419-.639-2.697-1.124-3.881-1.48 3.948 1.527 10.587 7.856 16.573 13.183 4.594 4.083 12.047 11.193 16.836 14.96l5.637.968c.276-1.002 1.157-5.704 1.157-5.704l-2.401-.753z" fill="#F38A7C"/><path fill-rule="evenodd" clip-rule="evenodd" d="M505.184 354.603c-2.408-4.298-5.778-6.995-9.693-9.84-3.524-2.563-6.632-5.24-8.145-8.388-.464-.969-.787-1.756-.908-3.061-.431-4.553-5.59-.208-11.253 2.704-4.487 2.301-11.899 1.272-18.323.956-5.509-.343-6.78 2.656-10.5 8.286-3.719 5.63-4.58 8.395-10.876 17.65-6.296 9.255-8.489 12.403-12.02 20.038-3.531 7.634-3.558 15.342-3.558 15.342l41.521 13.016 43.755-56.703z" fill="#FCAF91"/><path fill-rule="evenodd" clip-rule="evenodd" d="M436.892 399.945s19.156-10.856 26.912-16.224c7.755-5.367 24.544-23.414 24.544-23.414l7.184 8.556-36.975 49.492-17.004-10.177-4.661-8.233z" fill="#F38A7C"/><path fill-rule="evenodd" clip-rule="evenodd" d="M406.624 387.831s11.259 10.493 28.425 19.93c23.058 12.672 28.889 8.583 34.035 5.354 5.529-3.464 11.892-10.237 20.535-20.979 6.861-8.529 12.484-16.486 15.249-21.686 3.101-5.831 2.502-12.383.316-15.84-2.388-3.78-9.753-2.798-16.829 5.704-7.076 8.502-24.578 30.564-28.069 34.64 0 0-10.379-2.495-24.134-6.518-10.412-3.04-18.518-5.468-23.475-8.159-1.587-.861-2.993-1.937-3.881-2.811-3.087-3.054-7.042-8.038-9.746-11.139-.774-.888-1.648-1.782-2.65-2.051-1.5-.397-4.285-.66-8.334-.357-2.805.209-5.576 2.368-7.823 4.271-2.018 1.716-2.489 3.222-1.386 3.828.686.376 1.944-.485 3.747-1.608 2.105-1.312 3.37-2.206 5.246-2.448 1.628-.202 5.772.376 5.772.376s-2.92.343-5.213.794c-2.294.451-3.256 1.244-5.18 2.664-1.923 1.419-3.78 3.181-4.19 3.82-.585.915-.074 1.823.794 1.796 1.103-.034 1.917-.632 2.717-1.036.996-.498 3.996-2.744 3.996-2.744s-3.976 3.827-4.843 4.957c-1.023 1.325-.431 2.2.423 2.267.976.074 2.153-.848 2.153-.848s.37 1.218 1.728.794c1.359-.424 2.294-1.049 4.077-1.951 1.782-.908 3.343-1.076 4.473-.423 1.13.652 2.239 2.381 3.598 4.163 1.359 1.783 2.126 2.718 3.538 3.881 2.092 1.722 4.931 1.359 4.931 1.359z" fill="#FCAF91"/><path fill-rule="evenodd" clip-rule="evenodd" d="M486.545 317.831s-.403 3.928-.202 7.647c.128 2.328-.013 6.061.088 7.843.114 2.018 1.473 4.097 1.473 4.097-2.011 4.298-9.76 6.881-11.663 7.143-4.406.605-9.834 1.029-10.13-3.41 0-.027-.215-5.886-.175-10.769 4.244-3.599 20.266-13.406 20.609-12.551z" fill="#F38A7C"/><path fill-rule="evenodd" clip-rule="evenodd" d="M468.082 308.057c-.411 2.341-.814 6.478-1.467 10.211-.652 3.733-1.547 7.049-.915 9.531.626 2.482 2.785 4.13 6.31 4.076 3.524-.047 8.421-1.796 11.071-3.975 2.657-2.18 3.901-5.482 4.931-6.733 0 0 1.385.235 3.127-.767 1.433-.827 2.106-2.59 2.294-4.54.128-1.372-.457-2.301-1.325-3.989-.868-1.682-2.005-4.116-3.767-5.704-1.762-1.581-4.143-2.314-7.412-2.428-3.269-.108-7.433.397-9.72.921-2.293.532-2.71 1.063-3.127 3.397z" fill="#FCAF91"/><path fill-rule="evenodd" clip-rule="evenodd" d="M485.603 309.618c-2.656-1.265-5.32-2.529-8.421-2.926-3.101-.397-5.751.107-8.751-.108-2.993-.215-6.571-2.388-7.829-4.621-1.191-2.105-1.635-3.733-1.662-5.744-.047-2.805 1.346-4.917 3.559-6.047 1.95-.995 3.847-1.117 7.029-.047 3.309 1.117 5.966 3.121 9.188 3.316 3 .182 4.829-.504 6.208-.256 1.379.249 2.3 1.581 2.845 2.691.545 1.11.72 2.004.895 2.892 2.125-.181 4.184.202 5.253 1.823 1.413 2.132.975 4.601.706 7.412-.269 2.812-.733 5.005-1.197 7.15a4.979 4.979 0 00-.511-1.654c-.296-.572-.727-1.15-1.419-1.406-.693-.256-1.547-.101-2.059.087-.504.189-.665.418-.827.639-.134.539-.276 1.083-.316 4.056-.04 2.973-.229 6.061-.821 9.444-.592 3.377-2.011 4.628-4.748 6.612-2.227 1.614-4.971 3.558-7.991 5.099-3.592 1.836-8.011 3.047-11.334 2.017-2.556-.793-4.93-3.013-4.796-6.141.148-3.551 5.536-7.069 7.372-12.302.821.027 1.635.047 3.013.141 1.379.094 3.317.249 5.832.976 2.516.726 5.596 2.031 7.419 1.486 1.823-.538 2.388-2.919 2.731-5.657.37-2.737.498-5.838.632-8.932z" fill="#7427C9"/><path fill-rule="evenodd" clip-rule="evenodd" d="M472.467 311.104c-.471.754-.921 2.913-1.729 5.126-.807 2.206-1.964 4.466-2.065 5.825-.107 1.358.841 1.822 1.877 2.044 1.029.222 2.146.209 2.697-.423.552-.633.532-1.884.552-3.989.013-2.105.06-5.072-.155-6.881-.229-1.816-.713-2.455-1.177-1.702z" fill="#EA6767"/><path d="M493.366 312.51c.8-1.803 1.87-4.19 2.293-6.168.424-1.977.478-4.123-.175-5.65-.652-1.534-2.011-2.448-3.316-2.637-1.304-.195-2.556.33-3.807.861M483.774 291.12c-1.365.707-3.06.922-4.903.882-1.837-.041-3.713-.707-5.973-1.803-2.375-1.157-3.74-2.065-5.792-2.401-2.562-.417-5.192.329-6.921 1.829-1.547 1.345-2.422 3.188-2.422 5.018 0 1.83.498 3.309 1.137 4.594 1.81 3.659 4.709 5.018 6.108 5.65" stroke="#7427C9" stroke-width="2.126" stroke-miterlimit="22.926" stroke-linecap="round" stroke-linejoin="round"/><path fill-rule="evenodd" clip-rule="evenodd" d="M485.503 311.972c-.653-.753-1.521-1.473-3.034-2.105-2.253-.942-5.953-1.675-9.706-1.554-1.628.054-3.276.269-4.803.477.041-.262.081-.504.122-.733.107-.605.215-1.089.356-1.48 2.791.088 5.946-.255 8.751.108 3.101.397 5.758 1.662 8.421 2.926-.04.794-.074 1.581-.107 2.361z" fill="#F38A7C"/><path fill-rule="evenodd" clip-rule="evenodd" d="M476.355 311.609c.733.215 2.119.201 3.289.376 1.171.175 2.119.538 2.657.639.545.101.679-.067.531-.383-.148-.323-.585-.794-1.318-1.251a10.214 10.214 0 00-2.711-1.123c-.948-.243-1.822-.296-2.219-.249-.397.04-.323.181-.39.235-.068.054-.283.034-.424.135-.148.101-.222.316-.222.652s.074.753.807.969zM470.739 311.017c-.525.108-1.5-.108-2.328-.101-.827.007-1.513.229-1.897.249-.383.02-.477-.162-.356-.458.121-.295.444-.699.975-1.042a5.237 5.237 0 011.951-.72c.679-.101 1.291-.027 1.567.074.276.101.222.222.262.289.047.068.195.074.29.189.101.121.141.35.134.672-.007.317-.074.74-.598.848z" fill="#5D19AA"/><path d="M454.555 364.989s8.354-11.933 10.93-14.926" stroke="#F38A7C" stroke-width="2" stroke-miterlimit="10" stroke-linecap="round" stroke-linejoin="round"/><path fill-rule="evenodd" clip-rule="evenodd" d="M438.721 363.448c.31-.511 1.164-.693 2.025-.666.861.027 1.762.464 1.56 1.097-.201.632-.995.766-2.058.733-1.063-.034-1.924-.505-1.527-1.164zM468.66 372.744c.202-.383.942-.303 1.803 0s1.412 1.278.941 1.722c-.336.316-1.439-.168-2.105-.552-.666-.39-.888-.692-.639-1.17z" fill="#F38A7C"/><path fill-rule="evenodd" clip-rule="evenodd" d="M374.862 383.889l-41.804-12.369a4.68 4.68 0 01-2.993-2.684l-14.811-35.3c-.384-.914.43-1.883 1.399-1.668l40.263 9.155a4.7 4.7 0 013.283 2.758l16.136 38.461c.404.955-.484 1.943-1.473 1.647z" fill="#A987EB"/><path fill-rule="evenodd" clip-rule="evenodd" d="M348.354 358.814c.766 1.863-.034 3.249-1.332 3.242-1.514-.007-2.913-1.17-3.727-2.96-.739-1.634-.262-3.302 1.211-3.39 1.466-.08 3.067 1.225 3.848 3.108zM263.111 479.181l-33.591-26.428a2.402 2.402 0 01-.403-3.363l.047-.06a2.402 2.402 0 013.363-.404l33.591 26.428a2.402 2.402 0 01.404 3.363l-.047.06a2.402 2.402 0 01-3.364.404z" fill="#7427CA"/><path fill-rule="evenodd" clip-rule="evenodd" d="M256.822 468.405s1.366-3.605 1.379-7.392c.014-3.787-.861-9.269-2.354-11.623-1.251-1.977-3.464-1.977-4.419-1.742-.982.242-1.467.666-1.467.666s-.41-1.473-2.455-2.112c-1.688-.525-3.188 0-3.188 0s-.39-.733-2.307-1.325c-1.917-.592-3.713-.027-4.809.356 0 0 2.226.31 2.932 2.496 1.016 3.134-.598 6.712-.598 6.712l17.286 13.964z" fill="#3384FF"/><path fill-rule="evenodd" clip-rule="evenodd" d="M554.696 315.51v18.84a5.287 5.287 0 01-1.244 3.411l-94.498 112.436a5.301 5.301 0 01-4.056 1.89H353.93a5.29 5.29 0 00-2.435.592l-67.754 35.058a2.358 2.358 0 11-2.166-4.191l68.696-35.548a5.289 5.289 0 012.434-.592h99.388a5.301 5.301 0 004.056-1.89l91.928-109.329a5.32 5.32 0 001.245-3.411V315.51a2.69 2.69 0 012.69-2.691 2.688 2.688 0 012.684 2.691z" fill="#8BB9FF"/></svg>